<?xml version="1.0" encoding="UTF-8" standalone="no"?>
<!DOCTYPE svg PUBLIC "-//W3C//DTD SVG 1.1//EN" "http://www.w3.org/Graphics/SVG/1.1/DTD/svg11.dtd">
<svg version="1.1" xmlns="http://www.w3.org/2000/svg" xmlns:xlink="http://www.w3.org/1999/xlink" preserveAspectRatio="xMidYMid meet" viewBox="88.99999999999994 9 474.0000000000003 634" width="200" height="268.09"><defs><path d="M250 10L400 10L400 160L250 160L250 10Z" id="a2BiQQGnAO"></path><path d="M324.46 225.99L325.95 225.99L325.95 226.73L324.46 226.73L324.46 225.99Z" id="bEt5xv5Lk"></path><path d="M250 170L400 170L400 320L250 320L250 170Z" id="k211Utn8f9"></path><path d="M250 330L400 330L400 480L250 480L250 330Z" id="i7CUg4JrT"></path><path d="M410 490L560 490L560 640L410 640L410 490Z" id="a2C8DKaNkD"></path><path d="M90 490L240 490L240 640L90 640L90 490Z" id="cvGQfN1Cq"></path><path d="M410 170L560 170L560 320L410 320L410 170Z" id="b1PUZxZY0i"></path><path d="M90 170L240 170L240 320L90 320L90 170Z" id="f2SGms9LQ9"></path></defs><g><g><use xlink:href="#a2BiQQGnAO" opacity="1" fill="#ffffff" fill-opacity="1"></use></g><g><use xlink:href="#bEt5xv5Lk" opacity="1" fill="#ffffff" fill-opacity="1"></use></g><g><use xlink:href="#k211Utn8f9" opacity="1" fill="#ffffff" fill-opacity="1"></use></g><g><use xlink:href="#i7CUg4JrT" opacity="1" fill="#ffffff" fill-opacity="1"></use></g><g><use xlink:href="#a2C8DKaNkD" opacity="1" fill="#ffffff" fill-opacity="1"></use></g><g><use xlink:href="#cvGQfN1Cq" opacity="1" fill="#ffffff" fill-opacity="1"></use></g><g><use xlink:href="#b1PUZxZY0i" opacity="1" fill="#ffffff" fill-opacity="1"></use></g><g><use xlink:href="#f2SGms9LQ9" opacity="1" fill="#ffffff" fill-opacity="1"></use></g></g></svg>