<?xml version="1.0" encoding="UTF-8" standalone="no"?>
<svg
   xmlns:dc="http://purl.org/dc/elements/1.1/"
   xmlns:cc="http://creativecommons.org/ns#"
   xmlns:rdf="http://www.w3.org/1999/02/22-rdf-syntax-ns#"
   xmlns:svg="http://www.w3.org/2000/svg"
   xmlns="http://www.w3.org/2000/svg"
   xmlns:xlink="http://www.w3.org/1999/xlink"
   xmlns:sodipodi="http://sodipodi.sourceforge.net/DTD/sodipodi-0.dtd"
   xmlns:inkscape="http://www.inkscape.org/namespaces/inkscape"
   version="1.1"
   preserveAspectRatio="xMidYMid meet"
   viewBox="88.99999999999994 9 474.0000000000003 634"
   width="200"
   height="268.09"
   id="svg3915"
   sodipodi:docname="enemy.svg"
   inkscape:version="0.92.3 (2405546, 2018-03-11)">
  <metadata
     id="metadata3919">
    <rdf:RDF>
      <cc:Work
         rdf:about="">
        <dc:format>image/svg+xml</dc:format>
        <dc:type
           rdf:resource="http://purl.org/dc/dcmitype/StillImage" />
        <dc:title></dc:title>
      </cc:Work>
    </rdf:RDF>
  </metadata>
  <sodipodi:namedview
     pagecolor="#ffffff"
     bordercolor="#666666"
     borderopacity="1"
     objecttolerance="10"
     gridtolerance="10"
     guidetolerance="10"
     inkscape:pageopacity="0"
     inkscape:pageshadow="2"
     inkscape:window-width="1920"
     inkscape:window-height="1027"
     id="namedview3917"
     showgrid="false"
     inkscape:zoom="3.0586744"
     inkscape:cx="46.055062"
     inkscape:cy="134.045"
     inkscape:window-x="0"
     inkscape:window-y="0"
     inkscape:window-maximized="1"
     inkscape:current-layer="svg3915" />
  <defs
     id="defs3879">
    <path
       d="M250 10L400 10L400 160L250 160L250 10Z"
       id="a2BiQQGnAO" />
    <path
       d="M324.46 225.99L325.95 225.99L325.95 226.73L324.46 226.73L324.46 225.99Z"
       id="bEt5xv5Lk" />
    <path
       d="M250 170L400 170L400 320L250 320L250 170Z"
       id="k211Utn8f9" />
    <path
       d="M250 330L400 330L400 480L250 480L250 330Z"
       id="i7CUg4JrT" />
    <path
       d="M410 490L560 490L560 640L410 640L410 490Z"
       id="a2C8DKaNkD" />
    <path
       d="M90 490L240 490L240 640L90 640L90 490Z"
       id="cvGQfN1Cq" />
    <path
       d="M410 170L560 170L560 320L410 320L410 170Z"
       id="b1PUZxZY0i" />
    <path
       d="M90 170L240 170L240 320L90 320L90 170Z"
       id="f2SGms9LQ9" />
  </defs>
  <g
     id="g3913"
     transform="matrix(1,0,0,-1,0,650)">
    <g
       id="g3883">
      <use
         xlink:href="#a2BiQQGnAO"
         id="use3881"
         style="opacity:1;fill:#ffffff;fill-opacity:1"
         x="0"
         y="0"
         width="100%"
         height="100%" />
    </g>
    <g
       id="g3887">
      <use
         xlink:href="#bEt5xv5Lk"
         id="use3885"
         style="opacity:1;fill:#ffffff;fill-opacity:1"
         x="0"
         y="0"
         width="100%"
         height="100%" />
    </g>
    <g
       id="g3891">
      <use
         xlink:href="#k211Utn8f9"
         id="use3889"
         style="opacity:1;fill:#ffffff;fill-opacity:1"
         x="0"
         y="0"
         width="100%"
         height="100%" />
    </g>
    <g
       id="g3895">
      <use
         xlink:href="#i7CUg4JrT"
         id="use3893"
         style="opacity:1;fill:#ffffff;fill-opacity:1"
         x="0"
         y="0"
         width="100%"
         height="100%" />
    </g>
    <g
       id="g3899">
      <use
         xlink:href="#a2C8DKaNkD"
         id="use3897"
         style="opacity:1;fill:#ffffff;fill-opacity:1"
         x="0"
         y="0"
         width="100%"
         height="100%" />
    </g>
    <g
       id="g3903">
      <use
         xlink:href="#cvGQfN1Cq"
         id="use3901"
         style="opacity:1;fill:#ffffff;fill-opacity:1"
         x="0"
         y="0"
         width="100%"
         height="100%" />
    </g>
    <g
       id="g3907">
      <use
         xlink:href="#b1PUZxZY0i"
         id="use3905"
         style="opacity:1;fill:#ffffff;fill-opacity:1"
         x="0"
         y="0"
         width="100%"
         height="100%" />
    </g>
    <g
       id="g3911">
      <use
         xlink:href="#f2SGms9LQ9"
         id="use3909"
         style="opacity:1;fill:#ffffff;fill-opacity:1"
         x="0"
         y="0"
         width="100%"
         height="100%" />
    </g>
  </g>
</svg>
